<svg width="15" height="16" viewBox="0 0 20 21" className='copy-icon' fill="none" xmlns="http://www.w3.org/2000/svg">
<path d="M4.16797 12.9993H3.33464C2.89261 12.9993 2.46868 12.8238 2.15612 12.5112C1.84356 12.1986 1.66797 11.7747 1.66797 11.3327V3.83268C1.66797 3.39065 1.84356 2.96673 2.15612 2.65417C2.46868 2.34161 2.89261 2.16602 3.33464 2.16602H10.8346C11.2767 2.16602 11.7006 2.34161 12.0131 2.65417C12.3257 2.96673 12.5013 3.39065 12.5013 3.83268V4.66602M9.16797 7.99935H16.668C17.5884 7.99935 18.3346 8.74554 18.3346 9.66602V17.166C18.3346 18.0865 17.5884 18.8327 16.668 18.8327H9.16797C8.24749 18.8327 7.5013 18.0865 7.5013 17.166V9.66602C7.5013 8.74554 8.24749 7.99935 9.16797 7.99935Z" stroke="#120B48" stroke-width="1.67" stroke-linecap="round" stroke-linejoin="round"/>
</svg>
